<?xml version="1.0" encoding="utf-8"?>
<!-- Generator: Adobe Illustrator 23.0.1, SVG Export Plug-In . SVG Version: 6.00 Build 0)  -->
<svg version="1.1" id="Layer_1" xmlns="http://www.w3.org/2000/svg" xmlns:xlink="http://www.w3.org/1999/xlink" x="0px" y="0px"
	 viewBox="0 0 225.19 108.77" style="enable-background:new 0 0 225.19 108.77;" xml:space="preserve">
<style type="text/css">
	.st0{fill:#D0EBF8;}
</style>
<path class="st0" d="M193.91,108.77c16.29,0,31.28-15.5,31.28-31.79c0-16.29-13.2-29.49-29.49-29.49c-0.98,0-1.95,0.05-2.91,0.14
	c-5.93-14.68-20.31-25.04-37.11-25.04c-3.51,0-6.92,0.46-10.16,1.3C139.26,9.82,125.17,0,108.77,0C90.56,0,75.18,12.11,70.23,28.71
	c-5.75-2.21-12-3.43-18.53-3.43C23.15,25.28,0,48.42,0,76.98c0,28.55,29.66,31.79,58.21,31.79H193.91z"/>
</svg>
